<?xml version="1.0" encoding="UTF-8" standalone="no"?>
<!DOCTYPE svg PUBLIC "-//W3C//DTD SVG 1.1//EN"
 "http://www.w3.org/Graphics/SVG/1.1/DTD/svg11.dtd">
<!-- Generated by graphviz version 2.43.0 (0)
 -->
<!-- Title: Graphical Class Hierarchy Pages: 1 -->
<svg width="180pt" height="64pt"
 viewBox="0.00 0.00 180.00 64.00" xmlns="http://www.w3.org/2000/svg" xmlns:xlink="http://www.w3.org/1999/xlink">
<g id="graph0" class="graph" transform="scale(1 1) rotate(0) translate(4 60)">
<title>Graphical Class Hierarchy</title>
<!-- Node0 -->
<g id="Node000000" class="node">
<title>Node0</title>
<g id="a_Node000000"><a xlink:href="classCJoint.html" target="_top" xlink:title=" ">
<polygon fill="white" stroke="#666666" points="45,-37 0,-37 0,-18 45,-18 45,-37"/>
<text text-anchor="middle" x="22.5" y="-25" font-family="Helvetica,sans-Serif" font-size="10.00">CJoint</text>
</a>
</g>
</g>
<!-- Node1 -->
<g id="Node000001" class="node">
<title>Node1</title>
<g id="a_Node000001"><a xlink:href="classCJointPrismatic.html" target="_top" xlink:title=" ">
<polygon fill="white" stroke="#666666" points="172,-56 81,-56 81,-37 172,-37 172,-56"/>
<text text-anchor="middle" x="126.5" y="-44" font-family="Helvetica,sans-Serif" font-size="10.00">CJointPrismatic</text>
</a>
</g>
</g>
<!-- Node0&#45;&gt;Node1 -->
<g id="edge1_Node000000_Node000001" class="edge">
<title>Node0&#45;&gt;Node1</title>
<g id="a_edge1_Node000000_Node000001"><a xlink:title=" ">
<path fill="none" stroke="#63b8ff" d="M54.98,-33.36C63.15,-34.89 72.1,-36.55 80.81,-38.17"/>
<polygon fill="#63b8ff" stroke="#63b8ff" points="55.6,-29.92 45.13,-31.53 54.32,-36.8 55.6,-29.92"/>
</a>
</g>
</g>
<!-- Node2 -->
<g id="Node000002" class="node">
<title>Node2</title>
<g id="a_Node000002"><a xlink:href="classCJointRevolute.html" target="_top" xlink:title=" ">
<polygon fill="white" stroke="#666666" points="171,-19 82,-19 82,0 171,0 171,-19"/>
<text text-anchor="middle" x="126.5" y="-7" font-family="Helvetica,sans-Serif" font-size="10.00">CJointRevolute</text>
</a>
</g>
</g>
<!-- Node0&#45;&gt;Node2 -->
<g id="edge2_Node000000_Node000002" class="edge">
<title>Node0&#45;&gt;Node2</title>
<g id="a_edge2_Node000000_Node000002"><a xlink:title=" ">
<path fill="none" stroke="#63b8ff" d="M55.21,-21.9C63.58,-20.43 72.76,-18.81 81.64,-17.24"/>
<polygon fill="#63b8ff" stroke="#63b8ff" points="54.37,-18.5 45.13,-23.68 55.59,-25.39 54.37,-18.5"/>
</a>
</g>
</g>
</g>
</svg>
